<svg width="51" height="57" viewBox="0 0 51 57" fill="none" xmlns="http://www.w3.org/2000/svg">
<path d="M50.0556 35.3867C50.0559 36.3082 50.0054 37.2291 49.9045 38.1451C49.8917 38.2689 49.8772 38.3927 49.8626 38.5092C49.595 40.6571 49.0478 42.7608 48.2349 44.7669C48.1821 44.8979 48.1293 45.0272 48.0747 45.1565C47.2276 47.1474 46.126 49.02 44.7975 50.7278C44.721 50.8279 44.6427 50.9262 44.5644 51.0245C44.2816 51.3753 43.9909 51.7188 43.6923 52.055C42.2338 50.1184 41.1881 47.9032 40.6197 45.5464C40.0513 43.1895 39.9724 40.7412 40.3878 38.3526C40.3899 38.3349 40.393 38.3172 40.3969 38.2998C40.3969 38.2743 40.3969 38.2488 40.4115 38.2233C40.426 38.1978 40.4242 38.1542 40.4315 38.1196C40.4624 37.9375 40.4897 37.77 40.5134 37.5934C40.7222 36.1254 40.7222 34.6353 40.5134 33.1673C40.4715 32.8596 40.4187 32.5538 40.3568 32.257C40.1786 31.3737 39.9228 30.508 39.5922 29.6698C39.5218 29.4877 39.4471 29.3056 39.3682 29.1236C39.0082 28.2983 38.5762 27.5063 38.0773 26.7567C37.9074 26.4957 37.729 26.2421 37.5421 25.9957C37.1231 25.4369 36.6669 24.9071 36.1766 24.4098L36.0892 24.3206L36.0236 24.2551V24.2442L34.4269 22.6456L25.0449 13.2636V0L27.7286 2.68368L28.0436 2.99865L28.9321 3.88715L29.7842 4.7374L31.5957 6.55808L31.6777 6.64001L36.1001 11.0643L36.4205 11.3847L37.116 12.0766L38.2321 13.1963L38.6327 13.5968L40.4533 15.4066L40.7774 15.7307L40.8029 15.7543C40.8363 15.7913 40.8715 15.8266 40.9085 15.8599L42.498 17.4512L42.5362 17.4876L42.589 17.5422L42.6709 17.6242L42.995 17.9482C43.5558 18.526 44.088 19.1281 44.5917 19.7544C44.67 19.8527 44.7483 19.951 44.823 20.0511C45.4765 20.889 46.075 21.7684 46.6145 22.6838C47.1742 23.6294 47.6706 24.6111 48.1002 25.6224C48.1548 25.7517 48.2094 25.881 48.2604 26.012C48.3114 26.1431 48.3733 26.2924 48.4279 26.4344C49.1467 28.3106 49.6358 30.2669 49.8845 32.2606C49.899 32.3844 49.9136 32.5082 49.9263 32.6247C50.0202 33.5423 50.0634 34.4644 50.0556 35.3867Z" fill="#22B573"/>
<path d="M40.1266 41.4095C40.1259 40.3879 40.2136 39.3681 40.3888 38.3617C40.391 38.3439 40.394 38.3263 40.3979 38.3089C40.3979 38.2834 40.3979 38.2579 40.4125 38.2324C40.427 38.2069 40.4125 38.1978 40.4216 38.1796C40.4562 37.9975 40.4853 37.7954 40.5126 37.6025C40.7214 36.1345 40.7214 34.6443 40.5126 33.1764C40.4707 32.8687 40.4179 32.5628 40.356 32.266C40.1779 31.3828 39.922 30.517 39.5914 29.6789C39.521 29.4968 39.4463 29.3147 39.3674 29.1327C39.0074 28.3073 38.5754 27.5153 38.0766 26.7658C37.9066 26.5048 37.7282 26.2511 37.5413 26.0047C37.1223 25.446 36.6661 24.9162 36.1758 24.4189L36.0884 24.3297L36.0228 24.2642L36.0119 24.2532L34.4152 22.6547L25.0332 13.2727V19.7689C25.0346 21.2716 25.6325 22.7123 26.6955 23.7744L31.2891 28.368L31.5895 28.6702L31.6659 28.7467C31.7897 28.8705 31.9099 28.9961 32.0301 29.1272C32.6249 29.7899 33.1221 30.5342 33.5066 31.3375C33.6491 31.6339 33.7755 31.9378 33.8853 32.2478C34.1829 33.0875 34.3582 33.9655 34.4061 34.855C34.4061 35.028 34.4206 35.201 34.4206 35.3757C34.4206 35.5505 34.4206 35.7253 34.4061 35.8983C34.3565 36.7926 34.1781 37.675 33.8762 38.5182C33.7664 38.8283 33.64 39.1321 33.4975 39.4286C33.113 40.2319 32.6158 40.9761 32.021 41.6389C31.9063 41.77 31.7879 41.8938 31.6568 42.0176C31.5348 42.1396 31.4074 42.2598 31.2781 42.3817C30.3683 43.2007 29.3052 43.8313 28.1502 44.237C28.0446 44.2752 27.9372 44.3116 27.828 44.3444C27.7187 44.3772 27.6258 44.4063 27.5239 44.4336L27.371 44.4755C26.848 44.6124 26.3854 44.9191 26.0558 45.3476C25.7262 45.776 25.5484 46.3019 25.5503 46.8424V51.03H25.7724H25.8325H25.9654H26.0491H26.1493H26.1602L26.4115 51.0099H26.4242C26.6827 50.9881 26.9395 50.9571 27.1943 50.9225H27.2417C27.4729 50.8825 27.7023 50.8497 27.9317 50.8096C28.0082 50.7951 28.0847 50.7823 28.1593 50.766C28.3723 50.7223 28.5854 50.6749 28.7947 50.6239C29.4219 50.4675 30.0788 50.4759 30.7019 50.6481C31.3249 50.8204 31.8928 51.1507 32.3505 51.6071L37.7434 57C39.8481 55.6545 41.4903 54.3691 42.7266 53.1328C43.0591 52.8015 43.382 52.461 43.6952 52.1114C41.3645 49.0318 40.1107 45.2716 40.1266 41.4095Z" fill="#009B6F"/>
<path d="M5.92728e-05 35.3867C-0.000223183 36.3082 0.0502284 37.2291 0.151179 38.1451C0.163924 38.2689 0.178485 38.3927 0.193051 38.5092C0.460671 40.6571 1.00787 42.7608 1.82074 44.7669C1.87354 44.8979 1.92634 45.0272 1.98096 45.1565C2.8281 47.1474 3.92968 49.02 5.25818 50.7278C5.33465 50.8279 5.41293 50.9262 5.49122 51.0245C5.77282 51.3753 6.06353 51.7188 6.36334 52.055C7.81935 50.119 8.86312 47.905 9.43022 45.5499C9.99732 43.1947 10.0757 40.7483 9.66058 38.3617C9.66146 38.3441 9.66146 38.3265 9.66058 38.3089C9.66058 38.2834 9.66058 38.2579 9.64602 38.2324C9.63145 38.207 9.63327 38.1633 9.62599 38.1287C9.59504 37.9466 9.56773 37.7791 9.54406 37.6025C9.33529 36.1345 9.33529 34.6444 9.54406 33.1764C9.58593 32.8687 9.63873 32.5628 9.70063 32.2661C9.87882 31.3828 10.1347 30.5171 10.4653 29.6789C10.5357 29.4968 10.6104 29.3148 10.6893 29.1327C11.0493 28.3074 11.4812 27.5154 11.9801 26.7658C12.1488 26.5048 12.3273 26.2512 12.5154 26.0048C12.9344 25.446 13.3906 24.9162 13.8809 24.4189L13.9683 24.3297L14.0339 24.2642L14.043 24.2533L15.6397 22.6547L25.0217 13.2727V0L22.338 2.68368L22.023 2.99865L21.14 3.88897L20.2879 4.73922L18.4672 6.5599L18.3853 6.64183L13.9629 11.0661L13.6424 11.3865L12.9469 12.0784L11.8454 13.1872L11.4448 13.5877L9.63327 15.3975L9.29645 15.7234L9.27096 15.7471C9.2376 15.784 9.20236 15.8193 9.16536 15.8527L7.5759 17.4439L7.53768 17.4803L7.48487 17.535L7.40294 17.6169L7.07886 17.941C6.51809 18.5187 5.98584 19.1208 5.48212 19.7471C5.40383 19.8454 5.32555 19.9437 5.2509 20.0438C4.59734 20.8817 3.99889 21.7611 3.45935 22.6765C2.89962 23.6221 2.40331 24.6038 1.97368 25.6151C1.91906 25.7444 1.86444 25.8737 1.81346 26.0048C1.76248 26.1358 1.70057 26.2851 1.64595 26.4272C0.927121 28.3033 0.438049 30.2596 0.189406 32.2533C0.17484 32.3771 0.160279 32.5009 0.147534 32.6175C0.0472802 33.5371 -0.00195315 34.4616 5.92728e-05 35.3867Z" fill="#22B573"/>
<path d="M9.92999 41.4095C9.93071 40.3879 9.84299 39.3681 9.66781 38.3617C9.66868 38.3441 9.66868 38.3265 9.66781 38.3089C9.66781 38.2834 9.66782 38.2579 9.65325 38.2324C9.63868 38.2069 9.65325 38.1978 9.65325 38.1796C9.61866 37.9975 9.58953 37.7954 9.56222 37.6025C9.35345 36.1345 9.35345 34.6443 9.56222 33.1764C9.60409 32.8687 9.65689 32.5628 9.71879 32.266C9.89698 31.3828 10.1529 30.517 10.4835 29.6789C10.5539 29.4968 10.6285 29.3147 10.7074 29.1327C11.0674 28.3073 11.4994 27.5153 11.9983 26.7658C12.167 26.5048 12.3454 26.2511 12.5336 26.0047C12.9525 25.446 13.4087 24.9162 13.8991 24.4189L13.9865 24.3297L14.052 24.2642L14.0629 24.2532L15.6597 22.6547L25.0416 13.2727V19.7689C25.0402 21.2716 24.4424 22.7123 23.3793 23.7744L18.7639 28.3734L18.4635 28.6757L18.387 28.7521C18.2632 28.8759 18.1431 29.0016 18.0229 29.1327C17.428 29.7954 16.9308 30.5397 16.5463 31.343C16.4039 31.6394 16.2775 31.9433 16.1676 32.2533C15.8701 33.093 15.6948 33.971 15.6469 34.8605C15.6378 35.0335 15.6324 35.2064 15.6324 35.3812C15.6324 35.556 15.6324 35.7308 15.6469 35.9037C15.6948 36.7933 15.8701 37.6713 16.1676 38.511C16.2775 38.821 16.4039 39.1249 16.5463 39.4213C16.9308 40.2246 17.428 40.9689 18.0229 41.6316C18.1376 41.7627 18.256 41.8865 18.387 42.0103C18.509 42.1323 18.6365 42.2525 18.7657 42.3744C19.6756 43.1934 20.7387 43.824 21.8937 44.2297C21.9993 44.2679 22.1067 44.3044 22.2159 44.3371C22.3252 44.3699 22.418 44.399 22.52 44.4264L22.6729 44.4682C23.1959 44.6051 23.6585 44.9118 23.9881 45.3403C24.3176 45.7687 24.4955 46.2946 24.4936 46.8351V51.0227H24.2715H24.2114H24.0785H23.9947H23.8946H23.8837L23.6324 51.0027H23.6197C23.3611 50.9808 23.1044 50.9499 22.8495 50.9153H22.8022C22.571 50.8752 22.3416 50.8424 22.1122 50.8024C22.0357 50.7878 21.9592 50.7751 21.8846 50.7587C21.6697 50.715 21.4585 50.6676 21.2473 50.6167C20.6202 50.4604 19.9632 50.4688 19.3403 50.6411C18.7173 50.8133 18.1494 51.1436 17.6915 51.5998L12.3005 56.9927C10.2067 55.609 8.56813 54.3217 7.33188 53.0873C6.99809 52.756 6.67522 52.4155 6.36328 52.0659C8.68385 48.9985 9.93653 45.2558 9.92999 41.4095Z" fill="#009B6F"/>
</svg>
